<?xml version="1.0" standalone="no"?>
<!DOCTYPE svg PUBLIC "-//W3C//DTD SVG 20010904//EN"
 "http://www.w3.org/TR/2001/REC-SVG-20010904/DTD/svg10.dtd">
<svg version="1.0" xmlns="http://www.w3.org/2000/svg"
 width="500.000000pt" height="500.000000pt" viewBox="0 0 500.000000 500.000000"
 preserveAspectRatio="xMidYMid meet">

<g transform="translate(0.000000,500.000000) scale(0.100000,-0.100000)"
fill="#000000" stroke="none">
<path d="M0 2500 l0 -2500 2500 0 2500 0 0 2500 0 2500 -2500 0 -2500 0 0
-2500z m2992 1073 c18 -32 36 -66 40 -75 4 -10 12 -18 18 -18 5 0 10 -9 10
-20 0 -37 -19 -21 -61 53 -24 39 -49 78 -56 85 -17 18 -17 32 1 32 8 0 29 -26
48 -57z m78 33 c0 -8 -4 -18 -10 -21 -5 -3 -10 -4 -10 -1 0 2 -3 11 -6 20 -4
11 -1 16 10 16 9 0 16 -6 16 -14z m-231 -119 c8 -20 8 -34 1 -48 -14 -25 -17
-24 -17 9 0 15 -11 55 -25 89 -22 54 -23 62 -9 65 12 2 19 -9 28 -42 6 -25 16
-58 22 -73z m372 69 c-17 -20 -61 -143 -54 -150 4 -3 0 -6 -9 -6 -21 0 -29 11
-19 24 15 18 51 119 51 144 0 20 3 21 21 12 15 -8 17 -15 10 -24z m-498 -24
c4 -21 17 -59 31 -85 23 -47 23 -48 2 -34 -11 8 -30 38 -41 68 -11 30 -23 59
-27 65 -9 13 0 24 17 24 7 0 15 -17 18 -38z m239 -79 c8 -10 5 -13 -9 -13 -16
0 -19 5 -14 33 3 23 6 26 9 12 2 -11 9 -26 14 -32z m-334 -35 c36 -38 59 -69
53 -72 -13 -9 -143 122 -135 135 8 14 12 11 82 -63z m716 58 c-48 -21 -76 -64
-72 -109 3 -33 2 -36 -9 -21 -17 23 -16 49 3 89 16 35 45 53 84 54 24 0 23 -1
-6 -13z m86 -44 c0 -5 -8 -16 -17 -24 -22 -19 -85 -30 -80 -14 2 6 18 12 36
14 18 2 35 10 38 18 6 15 23 19 23 6z m-899 -67 c34 -13 65 -23 69 -20 4 3 10
-4 13 -15 6 -25 0 -25 -58 0 -54 23 -69 25 -60 8 4 -7 1 -6 -7 3 -7 8 -21 18
-31 22 -18 7 -15 27 4 27 5 0 37 -11 70 -25z m809 -55 c0 -5 -6 -10 -14 -10
-8 0 -18 5 -21 10 -3 6 3 10 14 10 12 0 21 -4 21 -10z m-771 -38 c18 -6 20
-10 9 -19 -10 -8 -19 -3 -38 21 -13 17 -18 26 -9 19 8 -7 25 -16 38 -21z m985
16 c-4 -7 -32 -46 -63 -85 -39 -52 -57 -69 -63 -59 -5 9 6 28 32 56 22 24 38
45 36 47 -6 7 38 51 52 52 8 1 10 -4 6 -11z m-81 -27 c8 -8 2 -8 -21 0 -38 13
-67 -3 -59 -32 3 -12 0 -16 -9 -12 -15 5 -19 44 -6 57 10 11 82 0 95 -13z
m-1005 -41 c32 -20 57 -62 49 -84 -3 -6 -9 1 -15 15 -19 49 -99 82 -142 59
-17 -9 -21 -9 -15 0 20 32 78 37 123 10z m-325 -80 c-46 -19 -48 -34 -51 -412
l-3 -358 106 0 c120 0 231 21 270 52 24 19 26 25 20 72 -14 109 39 261 118
340 64 64 125 89 221 92 l81 2 -77 -7 c-89 -8 -139 -36 -194 -108 -80 -105
-105 -310 -56 -459 36 -110 104 -189 188 -219 32 -11 34 -14 14 -15 -42 0
-142 54 -185 101 -23 24 -51 65 -64 92 l-23 47 -276 1 c-170 0 -269 4 -255 9
46 19 48 34 48 385 0 351 -2 366 -48 385 -15 6 13 9 83 9 70 0 98 -3 83 -9z
m282 -56 c11 -3 34 0 49 6 26 9 27 9 16 -5 -16 -20 -82 -20 -120 0 -17 9 -30
17 -30 19 0 3 -3 12 -6 21 -5 12 3 9 31 -10 21 -14 48 -28 60 -31z m1190 8 c6
-4 17 -16 25 -26 15 -19 14 -19 -13 -1 -34 22 -108 16 -137 -10 -11 -10 -20
-13 -20 -7 0 23 53 52 94 52 22 0 46 -4 51 -8z m-23 -90 c10 -8 27 -12 39 -9
21 6 21 5 6 -10 -13 -14 -20 -14 -39 -4 -61 32 -70 39 -56 44 15 5 25 1 50
-21z m-1231 -28 c7 -9 22 -20 34 -24 19 -7 19 -8 2 -15 -13 -5 -27 1 -47 20
-17 16 -33 24 -41 20 -8 -5 -10 -4 -5 3 10 17 41 15 57 -4z m109 6 c0 -5 -2
-10 -4 -10 -3 0 -8 5 -11 10 -3 6 -1 10 4 10 6 0 11 -4 11 -10z m1026 -27 c-7
-7 -26 7 -26 19 0 6 6 6 15 -2 9 -7 13 -15 11 -17z m-511 -56 c61 -35 88 -81
83 -144 -6 -66 -31 -103 -131 -189 -80 -68 -97 -99 -78 -140 13 -30 -1 -32
-29 -4 -26 26 -26 85 -1 126 11 18 52 58 91 89 89 71 113 107 106 158 -6 52
-30 85 -79 108 -26 11 -34 19 -22 19 11 0 38 -10 60 -23z m-605 -17 c26 0 56
7 69 16 22 16 23 16 12 -4 -6 -12 -29 -27 -50 -33 -33 -10 -45 -9 -77 7 -21
11 -40 25 -42 33 -4 11 1 10 19 -2 13 -10 43 -17 69 -17z m1203 -5 c50 -6 67
-11 67 -22 0 -9 -6 -13 -15 -9 -9 3 -51 9 -95 12 -44 4 -80 10 -80 14 0 14 15
21 35 16 11 -2 50 -8 88 -11z m-12 -134 c16 -16 29 -36 29 -44 0 -9 -13 -2
-35 20 -32 32 -39 35 -85 31 -42 -2 -48 -1 -33 10 9 6 34 12 56 12 29 0 45 -7
68 -29z m-42 -121 c20 0 43 6 51 13 8 6 6 2 -4 -10 -25 -30 -73 -30 -117 0
-19 12 -35 32 -37 44 -3 19 1 17 33 -13 28 -26 45 -34 74 -34z m-156 -42 l17
-27 -29 17 c-23 13 -27 20 -19 30 6 7 12 11 12 10 1 -2 10 -15 19 -30z m96
-104 c11 -3 11 -8 3 -16 -8 -8 -33 -5 -94 11 -93 25 -110 32 -116 49 -3 9 130
-19 207 -44z m-219 -145 c7 -12 6 -19 -5 -23 -8 -3 -15 -1 -15 4 0 5 -4 20 -9
33 -9 22 -13 24 -50 17 -34 -6 -39 -5 -30 6 6 8 22 14 35 14 28 0 29 4 10 58
-11 29 -11 42 -3 45 6 2 21 -27 34 -66 13 -39 28 -78 33 -88z m-142 112 c-7
-11 -16 -17 -20 -15 -14 9 -9 22 10 27 9 3 18 5 20 6 1 0 -3 -8 -10 -18z m-92
-15 c10 -8 16 -18 12 -22 -5 -4 -16 0 -25 8 -10 9 -25 18 -33 21 -11 4 -9 6 6
6 11 1 29 -5 40 -13z m-95 -15 c-12 -22 0 -35 63 -67 33 -17 41 -26 41 -49 0
-16 -5 -30 -11 -32 -7 -2 -10 5 -7 20 4 20 -2 27 -34 42 -69 32 -90 64 -61 93
17 17 20 15 9 -7z m460 -2 c11 -5 17 -14 14 -20 -9 -14 -19 -11 -33 11 -14 23
-10 25 19 9z m-211 -129 c-19 -13 -30 -13 -30 0 0 6 10 10 23 10 18 0 19 -2 7
-10z m-234 -27 c-7 -7 -26 7 -26 19 0 6 6 6 15 -2 9 -7 13 -15 11 -17z m124
-52 c0 -46 -2 -50 -32 -60 -18 -7 -60 -14 -93 -17 l-60 -4 41 13 c51 17 106
58 124 92 7 14 15 25 17 25 2 0 3 -22 3 -49z m-670 -108 c0 -5 -4 -25 -9 -45
-9 -37 -8 -38 21 -38 17 0 27 -4 23 -10 -3 -5 -22 -10 -41 -10 -26 0 -34 4
-34 18 0 30 21 92 30 92 6 0 10 -3 10 -7z m132 -38 c-4 -41 -3 -45 17 -45 16
0 23 9 32 45 14 55 34 61 24 8 -8 -47 -31 -73 -61 -73 -38 0 -48 34 -28 98 9
31 21 8 16 -33z m195 8 l21 -37 7 37 c11 56 29 46 20 -10 -8 -55 -22 -76 -35
-53 -5 8 -15 24 -24 35 -15 19 -15 19 -22 -12 -7 -35 -24 -45 -24 -15 0 27 20
92 29 92 4 0 17 -17 28 -37z m200 -18 c13 -52 10 -66 -9 -47 -15 15 -55 16
-63 2 -3 -5 -13 -10 -21 -10 -10 0 -3 17 23 55 20 31 41 54 47 52 5 -2 16 -25
23 -52z"/>
<path d="M2861 2051 c-10 -18 -9 -21 9 -21 22 0 25 7 11 29 -7 11 -11 9 -20
-8z"/>
</g>
</svg>
